<?xml version="1.0" encoding="utf-8"?>
<!-- Generator: Adobe Illustrator 26.0.1, SVG Export Plug-In . SVG Version: 6.00 Build 0)  -->
<svg version="1.1" id="Layer_1" xmlns="http://www.w3.org/2000/svg" xmlns:xlink="http://www.w3.org/1999/xlink" x="0px" y="0px"
	 viewBox="0 0 300 240" style="enable-background:new 0 0 300 240;" xml:space="preserve">
<style type="text/css">
	.st0{fill:#FFFFFF;stroke:#000000;stroke-miterlimit:10;}
	.st1{fill:#FFFFFF;}
	.st2{fill:none;stroke:#000000;stroke-miterlimit:10;}
</style>
<path class="st0" d="M50.5,72.3c0,0,1.3-3.2,3.7-9.3c2.8-7.1,38.2-15,43.5-9.1c3.8,4.2,7.9,4.7,7.9,4.7"/>
<path class="st0" d="M249.5,72.3c0,0-1.3-3.2-3.7-9.3c-2.8-7.1-38.2-15-43.5-9.1c-3.8,4.2-7.9,4.7-7.9,4.7"/>
<g>
	<g>
		<path class="st1" d="M150,58c73.1,0,92.1-0.9,106,23.3s27,63.6,29.2,75.2c2.2,11.6,16.9,71.4-19.8,71.4c-8.3,0-40.2-28.9-53.1-38
			c-12.9-9.2-37.7-7.3-62.3-7.3"/>
		<path class="st2" d="M150,58c73.1,0,92.1-0.9,106,23.3s27,63.6,29.2,75.2c2.2,11.6,16.9,71.4-19.8,71.4c-8.3,0-40.2-28.9-53.1-38
			c-12.9-9.2-37.7-7.3-62.3-7.3"/>
	</g>
	<g>
		<path class="st1" d="M150,58c-73.1,0-92.1-0.9-106,23.3s-27,63.6-29.2,75.2C12.5,168.2-2.1,228,34.5,228c8.3,0,40.2-28.9,53.1-38
			c12.9-9.2,37.7-7.3,62.3-7.3"/>
		<path class="st2" d="M150,58c-73.1,0-92.1-0.9-106,23.3s-27,63.6-29.2,75.2C12.5,168.2-2.1,228,34.5,228c8.3,0,40.2-28.9,53.1-38
			c12.9-9.2,37.7-7.3,62.3-7.3"/>
	</g>
</g>
<circle class="st0" cx="79" cy="100" r="25"/>
<circle class="st0" cx="79" cy="100" r="15"/>
<circle class="st0" cx="136" cy="145" r="7.5"/>
<circle class="st0" cx="121" cy="160.5" r="7.5"/>
<circle class="st0" cx="121" cy="130.5" r="7.5"/>
<circle class="st0" cx="106" cy="145" r="7.5"/>
<circle class="st0" cx="125" cy="90" r="5"/>
<circle class="st0" cx="189" cy="145" r="25"/>
<circle class="st0" cx="189" cy="145" r="15"/>
<circle class="st0" cx="242.5" cy="100" r="7.5"/>
<circle class="st0" cx="227.5" cy="115" r="7.5"/>
<circle class="st0" cx="227.5" cy="85" r="7.5"/>
<circle class="st0" cx="212.5" cy="100" r="7.5"/>
<circle class="st0" cx="180" cy="90" r="5"/>
<path class="st0" d="M65.7,17.2c-4,2-13.6,30.5,3.5,27.3S79,26.7,79.3,15.7C75,14.8,69.7,15.2,65.7,17.2z"/>
<path class="st0" d="M234.3,17.2c4,2,13.6,30.5-3.5,27.3s-9.8-17.8-10.1-28.8C225,14.8,230.3,15.2,234.3,17.2z"/>
</svg>
